<?xml version="1.0" standalone="no"?>
<!DOCTYPE svg PUBLIC "-//W3C//DTD SVG 20010904//EN"
 "http://www.w3.org/TR/2001/REC-SVG-20010904/DTD/svg10.dtd">
<svg version="1.0" xmlns="http://www.w3.org/2000/svg"
 width="1000.000000pt" height="1000.000000pt" viewBox="0 0 1000.000000 1000.000000"
 preserveAspectRatio="xMidYMid meet">

<g transform="translate(0.000000,1000.000000) scale(0.100000,-0.100000)"
fill="#000000" stroke="none">
<path d="M4670 9877 c-15 -15 -71 -45 -320 -174 -74 -39 -241 -126 -370 -193
-129 -67 -296 -154 -370 -193 -253 -131 -305 -160 -317 -175 -10 -13 -13 -713
-13 -3429 0 -1877 -3 -3413 -8 -3413 -8 0 -305 154 -647 335 -44 23 -177 93
-295 155 -118 62 -251 132 -295 155 -44 23 -143 75 -220 115 -77 40 -155 81
-172 92 l-33 20 -2 591 -3 592 -748 3 -747 2 0 -908 c0 -852 1 -909 18 -923 9
-9 22 -23 27 -31 6 -9 84 -54 175 -100 91 -47 336 -174 545 -283 555 -288 639
-332 750 -390 55 -29 172 -90 260 -135 88 -45 205 -106 260 -135 55 -29 163
-85 240 -125 77 -40 196 -102 265 -138 243 -126 367 -190 505 -262 77 -40 194
-101 260 -135 66 -34 188 -97 270 -140 83 -43 191 -99 240 -125 50 -26 167
-87 260 -135 94 -48 206 -107 250 -130 180 -95 246 -127 250 -123 3 3 4 2197
3 4877 -3 4330 -5 4870 -18 4858z"/>
<path d="M5320 5005 c0 -2676 3 -4865 6 -4865 3 0 56 26 118 59 61 32 168 88
239 125 70 36 183 95 252 131 406 211 601 312 770 400 236 122 392 203 500
260 55 29 172 90 260 135 88 45 205 106 260 135 55 29 161 84 235 122 322 167
421 219 515 268 55 29 177 92 270 140 94 48 206 107 250 130 44 23 152 80 240
125 565 292 608 316 633 349 l22 30 0 681 c0 510 -3 680 -12 680 -10 0 -349
-168 -463 -230 -27 -15 -149 -78 -270 -140 -121 -62 -278 -143 -350 -180 -71
-37 -214 -111 -317 -164 -436 -223 -570 -293 -703 -361 -77 -40 -225 -116
-330 -170 -104 -54 -230 -119 -280 -145 -49 -26 -170 -89 -267 -139 l-178 -92
0 3424 c0 3248 -1 3425 -17 3439 -10 8 -103 59 -208 113 -104 54 -217 112
-250 130 -33 18 -141 74 -240 125 -99 51 -212 110 -251 130 -166 89 -421 220
-427 220 -4 0 -7 -2189 -7 -4865z"/>
</g>
</svg>
